<svg version="1.1" id="Layer_1" xmlns="http://www.w3.org/2000/svg" xmlns:xlink="http://www.w3.org/1999/xlink" x="0px" y="0px"
	 width="100%" viewBox="0 0 1024 1024" enable-background="new 0 0 1024 1024" xml:space="preserve">
<path fill="#000000" opacity="1.000000" stroke="none" 
	d="
M548.596436,404.579773 
	C546.919067,405.956726 545.359924,406.976776 544.416382,409.380066 
	C549.106079,413.355774 553.985718,416.950623 560.782349,416.955444 
	C584.281860,416.972137 607.781738,417.008514 631.280701,417.160522 
	C635.920288,417.190521 640.650024,416.932861 645.168823,418.335175 
	C656.462280,421.839813 664.000305,432.852509 664.012024,446.133942 
	C664.040100,477.966797 663.996033,509.799835 663.895813,541.632568 
	C663.849670,556.293823 664.411987,570.964722 663.448486,585.614807 
	C662.507385,599.923401 653.073425,609.235168 638.723267,610.005493 
	C635.232727,610.192932 631.724792,610.111328 628.225769,610.072205 
	C625.319702,610.039612 623.772705,611.229004 624.183533,614.285767 
	C624.670837,617.911438 625.162659,621.538086 625.754089,625.147644 
	C626.169006,627.679382 627.748413,628.729858 630.341980,628.694824 
	C637.174011,628.602478 644.010620,628.534485 650.839966,628.692200 
	C654.324890,628.772644 655.717346,626.550110 657.302063,624.094666 
	C670.432312,603.748840 702.199341,607.162231 712.550903,623.654907 
	C715.205505,627.884277 718.021790,628.765564 722.338928,628.199524 
	C725.283325,627.813477 726.975830,626.459351 727.082336,623.468445 
	C727.388611,614.862976 732.049316,608.468628 737.678101,602.598938 
	C740.766663,599.378113 742.043518,596.592346 739.910278,591.680664 
	C734.184631,578.497803 740.892883,562.556335 754.740234,559.165710 
	C764.128540,556.867004 769.561401,551.066345 775.440247,544.870056 
	C779.825745,540.247864 782.915405,535.621948 783.025513,528.371033 
	C783.227539,515.067444 796.929382,504.823853 812.307617,505.882141 
	C831.213867,507.183197 848.930298,512.606995 864.659912,523.575684 
	C866.291138,524.713196 867.875366,525.977051 869.260010,527.398132 
	C873.165527,531.406311 873.492188,534.863831 870.504150,539.516724 
	C869.698914,540.770569 868.779480,541.983459 867.744263,543.052185 
	C855.687622,555.498230 843.629578,567.943237 831.503296,580.321350 
	C826.696960,585.227478 822.506897,585.356384 816.925110,581.198486 
	C812.747681,578.086609 810.031372,573.558716 806.057190,569.974792 
	C800.810425,575.167542 795.436890,580.051025 790.603882,585.420959 
	C787.346863,589.039856 788.279419,593.566284 792.100403,596.378723 
	C801.833130,603.542480 809.623047,611.848022 809.386353,625.048218 
	C809.332458,628.053345 811.669434,628.452332 813.926208,628.444702 
	C840.393250,628.354675 866.861389,628.334412 893.326172,628.024414 
	C901.403992,627.929871 908.606262,629.387512 913.904236,635.967590 
	C918.355042,641.495361 919.597656,647.743347 916.348877,654.171021 
	C913.104065,660.590881 908.038940,665.076111 900.382385,665.270935 
	C893.554199,665.444702 886.717163,665.241272 879.884277,665.267090 
	C873.656677,665.290588 873.366089,665.566040 873.364380,671.750366 
	C873.354370,708.916565 873.372131,746.082703 873.375977,783.248901 
	C873.379761,820.415039 873.378113,857.581177 873.379456,894.747314 
	C873.379517,895.913818 873.458374,897.085388 873.377258,898.245972 
	C873.077209,902.541992 874.901611,904.133179 879.282227,903.785156 
	C884.085083,903.403442 888.943237,903.630676 893.774719,903.722290 
	C897.889160,903.800293 901.026306,905.436035 901.356750,909.974976 
	C901.677734,914.384644 899.078979,916.674744 894.990540,917.576416 
	C891.517883,918.342285 888.011169,917.881958 884.521729,917.882812 
	C820.356201,917.898743 756.188843,918.175354 692.025818,917.773315 
	C658.363831,917.562439 624.702881,917.530334 591.041626,917.437378 
	C557.725098,917.345337 524.403198,917.060486 491.092651,917.514404 
	C455.928955,917.993591 420.769257,917.872742 385.607941,917.856934 
	C357.958466,917.844482 330.295593,916.961853 302.663361,917.576233 
	C272.001862,918.257812 241.367126,916.885376 210.705521,917.593689 
	C178.730637,918.332336 146.728241,917.889099 114.737823,917.928101 
	C112.413475,917.930908 110.079964,917.735046 107.766197,917.487122 
	C103.719048,917.053345 101.179214,914.706482 101.128098,910.686035 
	C101.074867,906.498718 104.085182,904.332703 107.874359,903.967468 
	C112.335693,903.537537 116.888603,903.440369 121.351570,903.808350 
	C126.400818,904.224609 127.901665,902.475342 127.891151,897.375854 
	C127.750214,829.044800 127.810120,760.713257 127.838173,692.381836 
	C127.840981,685.549255 127.815613,678.711121 128.078598,671.886108 
	C128.257355,667.246765 126.557556,665.139404 121.730049,665.309143 
	C115.404854,665.531433 109.065033,665.397278 102.732338,665.333435 
	C91.683487,665.222046 83.664696,658.028076 83.224411,647.907593 
	C82.790329,637.929932 90.827103,629.283020 101.675621,628.717773 
	C113.475227,628.102844 125.300919,627.851624 137.120544,628.467346 
	C137.286911,628.476013 137.452591,628.499023 137.618973,628.506226 
	C149.325058,629.009338 149.676651,628.671997 149.654602,616.962585 
	C149.628357,603.025513 154.219421,598.326355 168.071686,598.116272 
	C169.238174,598.098572 170.405045,598.108887 171.571564,598.092773 
	C178.152786,598.001953 181.188797,594.461182 180.615677,587.745117 
	C180.390762,585.109497 178.613007,585.010437 176.714828,585.020142 
	C172.715775,585.040588 168.713348,585.258972 164.718872,585.151672 
	C154.150665,584.867798 147.981369,577.904907 148.447388,567.350647 
	C149.094635,552.692200 148.183197,538.037537 148.045090,523.380188 
	C147.995392,518.104980 148.662827,512.957336 152.621826,509.029419 
	C155.838760,505.837769 159.892212,504.583466 164.458054,504.598633 
	C186.790894,504.672821 209.124069,504.633972 231.457031,504.684631 
	C241.249054,504.706818 246.597748,509.707733 246.901993,519.667603 
	C247.023758,523.653870 248.402405,525.180420 252.221283,524.702393 
	C264.493103,523.166260 272.874176,533.994446 273.267578,544.507507 
	C273.783813,558.301819 265.849365,568.191345 253.163773,568.901367 
	C249.178497,569.124451 247.411285,569.959900 246.634216,574.229187 
	C245.375122,581.146729 239.686310,585.099304 232.522812,585.147278 
	C229.023071,585.170715 225.514877,585.286560 222.025116,585.094849 
	C217.764297,584.860718 216.752319,586.947998 217.580368,590.649414 
	C217.798492,591.624451 218.191986,592.608582 218.169662,593.580750 
	C218.069855,597.928162 220.536911,598.753967 224.291153,598.669189 
	C231.953415,598.496094 239.623489,598.566772 247.288864,598.659485 
	C257.088715,598.778076 262.682770,604.295227 263.136810,614.129883 
	C263.167511,614.795471 263.158569,615.462952 263.165131,616.129578 
	C263.288391,628.618652 263.288269,628.619263 276.013397,628.620605 
	C279.513245,628.620972 283.017761,628.730713 286.511841,628.587646 
	C292.142395,628.357178 294.723053,624.485779 292.397003,619.469360 
	C286.002228,605.678223 283.073334,590.658020 277.092377,576.723999 
	C276.584290,575.540283 276.696411,574.101868 276.431793,572.799744 
	C275.878387,570.076416 276.391754,567.804016 279.060394,566.460938 
	C281.898132,565.032776 284.343506,566.114380 286.312958,568.100159 
	C288.467224,570.272217 289.346954,573.191956 290.257324,576.078308 
	C292.238464,582.359558 294.366058,588.594727 296.785828,595.913452 
	C299.966400,590.794250 299.742004,586.068359 300.624359,581.693298 
	C301.838959,575.670410 302.517242,569.540100 303.701477,563.510071 
	C304.665955,558.598877 307.862244,555.903381 311.315094,556.566772 
	C314.830444,557.242126 316.524139,560.763306 315.701080,565.845825 
	C312.909363,583.085083 310.498840,600.392700 305.704773,617.251587 
	C303.833008,623.833984 307.663177,628.664307 314.458618,628.670715 
	C332.958221,628.688293 351.458405,628.581726 369.957092,628.710388 
	C374.289246,628.740540 376.446655,627.651672 377.238770,622.823059 
	C379.320892,610.130920 379.584045,609.673096 366.772644,610.222534 
	C349.203247,610.976074 338.460236,596.204895 338.621643,582.036926 
	C339.130402,537.376709 338.851776,492.707336 338.844299,448.041504 
	C338.843658,444.180145 339.205383,440.368225 340.233887,436.671234 
	C343.675629,424.300171 352.870331,417.224487 366.005585,417.131012 
	C389.837677,416.961426 413.672546,416.821808 437.503052,417.033997 
	C443.968292,417.091553 449.623718,415.380463 455.072754,412.319458 
	C459.454956,409.857666 459.621918,408.558502 455.537231,405.643738 
	C447.445007,399.869415 440.580505,392.886993 434.764008,384.883698 
	C424.285156,370.465179 419.037750,354.429749 418.426239,336.472351 
	C417.789368,317.771973 421.201324,300.226929 431.112640,284.432037 
	C445.137848,262.081085 465.123871,247.938797 491.679504,244.758667 
	C536.315430,239.413376 576.462891,270.251038 583.315186,315.064270 
	C588.173340,346.835938 580.272705,374.836121 556.995544,397.762543 
	C554.520752,400.200012 551.596924,402.181488 548.596436,404.579773 
M383.802307,768.068604 
	C383.828522,760.452209 383.317932,752.934509 386.214722,745.439880 
	C388.878815,738.547546 386.126984,735.452515 378.703339,735.442322 
	C349.887177,735.402954 321.070953,735.416321 292.254730,735.413208 
	C285.367310,735.412476 285.343414,735.418030 285.342865,742.345581 
	C285.338684,793.981506 285.409180,845.617676 285.244781,897.253113 
	C285.228882,902.252808 286.566956,903.860046 291.686615,903.809753 
	C316.003143,903.571106 340.323364,903.723511 364.642212,903.690613 
	C366.408630,903.688232 368.304352,904.173645 369.891541,902.990540 
	C370.521606,901.720093 369.794708,900.636658 369.549225,899.549438 
	C367.150330,888.926025 371.296112,879.031128 380.920288,874.408691 
	C384.775848,872.556885 386.538574,870.329651 386.584045,866.209351 
	C386.641693,860.984924 389.884094,858.448975 394.667053,857.644897 
	C397.280151,857.205566 399.949524,856.930725 402.597260,856.899292 
	C410.591339,856.804321 418.589478,856.754883 426.581512,856.914062 
	C430.222961,856.986572 432.228485,855.974792 432.172760,851.928894 
	C432.058258,843.615967 432.116119,835.299683 432.192108,826.985535 
	C432.281830,817.171021 432.450348,807.357056 432.615692,797.543396 
	C432.688599,793.215515 430.797272,791.101318 426.290405,791.242310 
	C421.465637,791.393311 416.630981,791.217834 411.800598,791.199280 
	C395.928375,791.138428 387.528900,784.448914 383.802307,768.068604 
M570.287964,813.500000 
	C570.286621,824.162598 570.195496,834.826050 570.307251,845.487488 
	C570.440247,858.181335 568.613037,856.819397 581.844421,856.902771 
	C589.341125,856.949951 596.843323,856.760437 604.333618,856.986816 
	C608.850586,857.123291 614.658569,857.453125 615.570618,862.518250 
	C616.871033,869.739685 620.268738,874.348755 626.579468,877.361389 
	C627.137878,877.627869 627.502930,878.305054 627.949951,878.798645 
	C634.437866,885.963806 635.240295,894.111267 631.723328,902.958496 
	C633.728943,904.059753 635.581238,903.742615 637.352173,903.742920 
	C660.843079,903.747009 684.333923,903.728394 707.824829,903.702271 
	C714.644897,903.694702 714.668396,903.675537 714.669983,896.737427 
	C714.681519,845.590576 714.687012,794.443787 714.683105,743.296936 
	C714.682556,735.802551 714.293823,735.408081 706.763062,735.402222 
	C678.773926,735.380493 650.784729,735.375793 622.795593,735.382324 
	C615.622559,735.384033 612.606567,739.425842 616.060242,745.926941 
	C619.692383,752.764221 619.450195,759.773254 619.066162,766.854187 
	C618.269287,781.547913 607.536499,791.315552 592.776917,791.283203 
	C587.445679,791.271545 582.095337,791.518982 576.788757,791.147583 
	C571.880920,790.804016 569.739502,792.257935 570.189087,797.513733 
	C570.613525,802.475708 570.286011,807.502075 570.287964,813.500000 
M305.500061,665.191223 
	C260.505798,665.211670 215.511398,665.281799 170.517441,665.176941 
	C165.932251,665.166260 163.793549,666.292786 164.018539,671.309265 
	C164.310059,677.808777 164.045837,677.829590 171.391479,677.830872 
	C274.377930,677.848694 377.364380,677.869812 480.350830,677.886536 
	C597.336060,677.905457 714.321228,677.922974 831.306458,677.932251 
	C837.761597,677.932739 837.471802,677.866333 837.839722,671.060059 
	C838.113098,666.001892 836.042664,664.931152 831.428162,664.965332 
	C804.934204,665.161865 778.438232,665.109253 751.942993,665.114319 
	C603.462036,665.142639 454.981049,665.163330 305.500061,665.191223 
M530.024109,399.556091 
	C531.201233,398.933746 532.405396,398.357269 533.551514,397.682251 
	C557.898926,383.342651 569.861389,361.971375 569.809082,333.782593 
	C569.804871,331.490082 569.722839,329.259125 566.533569,329.386444 
	C561.517395,329.586700 556.571716,328.979462 551.636230,328.192596 
	C549.682373,327.881073 548.192566,328.563171 546.752930,330.004822 
	C543.656189,333.105896 539.678650,334.123688 535.381958,334.342621 
	C514.632629,335.399841 497.386536,327.779419 482.818115,313.355499 
	C480.757996,311.315765 479.111633,308.650940 476.062012,307.895050 
	C473.520630,309.773895 472.204956,312.340851 470.533569,314.590942 
	C463.182465,324.487427 453.569061,331.567139 442.247711,335.988739 
	C432.770782,339.690002 432.584595,339.231140 434.185120,349.443329 
	C434.416016,350.916595 434.631592,352.407318 435.044952,353.834747 
	C445.418396,389.654510 484.614349,419.291412 530.024109,399.556091 
M641.500000,641.946655 
	C463.379425,641.957092 285.258820,641.966492 107.138245,641.995239 
	C105.483459,641.995483 103.760109,642.011047 102.189621,642.450989 
	C99.664551,643.158264 98.383423,645.211670 98.334885,647.711426 
	C98.282501,650.408875 100.346199,651.407471 102.640709,651.676941 
	C104.949356,651.948120 107.293159,651.997253 109.622116,652.006836 
	C158.428040,652.205322 207.234070,652.549255 256.040009,652.536804 
	C412.661835,652.496948 569.283936,653.077637 725.905640,652.165771 
	C781.390137,651.842712 836.877625,652.037170 892.363708,651.987854 
	C894.361511,651.986084 896.377258,652.057800 898.352661,651.824402 
	C901.227844,651.484741 903.580627,650.190613 903.701477,646.931030 
	C903.830872,643.440247 901.281616,642.520813 898.424194,642.201599 
	C897.104370,642.054077 895.763916,642.050110 894.432800,642.049500 
	C810.455200,642.010071 726.477600,641.977722 641.500000,641.946655 
M463.859497,903.689758 
	C476.702087,906.506531 488.979004,897.319336 489.710938,884.190491 
	C489.970154,879.540466 489.800018,874.865723 489.799377,870.202271 
	C489.793610,827.892151 489.793762,785.582031 489.760590,743.271912 
	C489.755005,736.174377 489.685272,736.120422 482.428955,736.085022 
	C472.601227,736.037109 462.772949,736.056335 452.945129,736.097046 
	C446.829956,736.122437 446.383911,736.569336 446.381042,742.632385 
	C446.371002,763.770142 446.761047,784.912292 446.698425,806.041321 
	C446.628326,829.677734 446.367279,853.318115 446.472290,876.957031 
	C446.526428,889.153992 450.067474,899.362122 463.859497,903.689758 
M555.827271,813.500000 
	C555.821228,789.509583 555.743958,765.518799 555.877869,741.529175 
	C555.900696,737.434143 554.523743,735.873047 550.414307,735.930542 
	C540.087891,736.075317 529.757568,735.935303 519.428772,735.915161 
	C513.493469,735.903564 512.999878,736.374390 512.953430,742.540894 
	C512.743958,770.347961 512.489197,798.155029 512.387451,825.962524 
	C512.320984,844.120422 512.278015,862.283142 512.623718,880.436035 
	C512.863342,893.017822 519.933533,901.816162 530.455383,903.733215 
	C543.574646,906.123474 555.516541,896.822021 555.681641,883.469421 
	C555.965881,860.482544 555.801697,837.490112 555.827271,813.500000 
M492.116943,258.518372 
	C459.953278,265.108765 440.730652,284.720459 433.741516,316.598969 
	C433.328369,318.483246 432.401459,320.787048 434.303192,322.182312 
	C436.159943,323.544525 438.125366,322.117554 439.890228,321.234833 
	C452.795410,314.779785 461.774902,304.649841 467.602051,291.572876 
	C469.160126,288.076263 470.421600,284.202148 475.197662,283.972137 
	C479.707367,283.754974 481.327057,287.340149 483.321320,290.383209 
	C483.686188,290.939911 484.021973,291.515594 484.375641,292.079742 
	C491.407074,303.296143 501.093689,311.375549 513.298645,316.431030 
	C514.919617,317.102448 516.562744,318.181396 518.915955,317.238586 
	C516.813477,314.034790 513.177368,312.592377 511.178467,309.530243 
	C509.177368,306.464752 509.024780,303.566345 511.369751,300.830109 
	C513.883301,297.897156 517.046143,297.614471 520.373047,299.465942 
	C521.384705,300.029022 522.291992,300.785248 523.226135,301.481201 
	C534.605408,309.959686 547.582397,313.468811 561.572266,313.648315 
	C567.537598,313.724884 568.559204,312.410553 566.905334,306.843018 
	C565.867615,303.349548 564.651978,299.847839 563.013123,296.603943 
	C552.541748,275.876923 526.356873,254.076111 492.116943,258.518372 
M232.782425,562.370972 
	C232.774551,549.545898 232.656265,536.719299 232.824387,523.896545 
	C232.876511,519.920288 231.771545,518.220581 227.483170,518.256897 
	C207.663940,518.424927 187.842163,518.396545 168.022156,518.285156 
	C163.832245,518.261597 161.980545,519.671692 162.034775,524.076843 
	C162.204971,537.899231 162.209930,551.725891 162.064987,565.548645 
	C162.019211,569.912842 163.924011,571.628845 168.046265,571.476318 
	C188.187469,570.731140 208.332291,570.854736 228.475113,571.347107 
	C231.470306,571.420227 232.841248,570.295654 232.748871,567.316101 
	C232.707611,565.985413 232.766510,564.651611 232.782425,562.370972 
M503.500061,538.858521 
	C509.986481,538.875854 516.479370,538.723877 522.956970,538.970886 
	C527.189758,539.132263 528.921631,537.733093 528.841736,533.280273 
	C528.609009,520.311279 528.621582,507.334900 528.768921,494.364014 
	C528.811707,490.596283 527.714050,488.932617 523.719238,488.946075 
	C508.586273,488.997131 493.452454,488.844299 478.319244,488.729095 
	C474.863708,488.702820 473.133972,490.056122 473.166656,493.761841 
	C473.283966,507.064941 473.339996,520.370483 473.199158,533.672791 
	C473.156982,537.655151 474.776306,538.893433 478.551697,538.821594 
	C486.531494,538.669861 494.516968,538.817383 503.500061,538.858521 
M850.339722,792.499939 
	C850.388794,827.805786 850.413147,863.111755 850.514038,898.417480 
	C850.528748,903.564331 851.947876,904.562744 856.895569,903.614502 
	C861.255615,902.778870 859.797607,899.263123 859.801270,896.774048 
	C859.884521,839.651855 859.879150,782.529541 859.856628,725.407227 
	C859.849426,707.089355 859.745422,688.771545 859.688416,670.453674 
	C859.680420,667.877441 859.789978,665.457886 856.086548,665.140320 
	C851.694275,664.763672 851.295898,667.135681 851.262207,670.619995 
	C850.872742,710.912720 849.957886,751.201050 850.339722,792.499939 
M141.982559,687.293823 
	C141.784485,691.949585 141.404984,696.605774 141.415878,701.261047 
	C141.552795,759.741272 141.767334,818.221191 141.897797,876.701416 
	C141.913757,883.859375 141.569962,891.018494 141.367325,898.176392 
	C141.249771,902.328918 143.425674,904.021912 147.314865,903.467468 
	C151.744995,902.835999 150.789734,899.157593 150.794785,896.359802 
	C150.866760,856.535706 150.887192,816.711365 150.858337,776.887146 
	C150.832855,741.729126 150.732635,706.571045 150.657928,671.413025 
	C150.651764,668.509277 150.796936,665.358154 146.567993,665.457458 
	C142.768524,665.546692 142.102219,668.169250 142.118988,671.341064 
	C142.145416,676.338318 142.037857,681.336365 141.982559,687.293823 
M520.113770,611.242432 
	C519.382568,607.662537 518.638184,604.085266 517.923218,600.502136 
	C516.735840,594.551758 517.374268,593.737732 523.365662,593.746399 
	C532.351807,593.759277 541.338135,593.857178 550.324097,593.835266 
	C553.169128,593.828369 556.491089,593.903503 556.609009,589.900940 
	C556.734680,585.636230 553.345947,586.077271 550.513184,586.078735 
	C518.228516,586.095215 485.943787,586.116699 453.659088,586.147827 
	C451.997681,586.149414 450.326752,586.158569 448.677704,586.331055 
	C447.028748,586.503540 445.912842,587.501404 445.614380,589.157715 
	C445.302795,590.886719 446.414429,591.954407 447.668182,592.848633 
	C449.126678,593.888916 450.852539,593.696106 452.498260,593.703003 
	C461.484619,593.740784 470.472443,593.831177 479.457031,593.705872 
	C483.798676,593.645386 484.976929,595.411194 484.160065,599.563538 
	C482.556976,607.712769 481.385040,615.946350 479.822388,624.104309 
	C479.251251,627.085938 479.909851,628.645203 483.105286,628.643555 
	C494.587402,628.637695 506.069519,628.632935 517.551636,628.624817 
	C520.689209,628.622620 522.172974,627.097412 521.798889,623.930359 
	C521.331726,619.975952 520.835999,616.024902 520.113770,611.242432 
M815.320923,520.268738 
	C812.992371,520.269470 810.658936,520.171631 808.336243,520.288635 
	C799.968628,520.709961 793.017273,529.312317 798.656006,538.148071 
	C803.522705,545.774170 809.079102,552.781921 815.240784,559.321594 
	C818.038635,562.291138 820.103027,566.091492 824.376953,568.167480 
	C834.679993,557.188843 845.782715,547.033936 855.780273,535.094666 
	C843.776184,525.920349 830.466980,521.908630 815.320923,520.268738 
M163.276474,624.058228 
	C162.938721,627.899414 165.538986,628.441467 168.400970,628.470459 
	C171.059036,628.497437 173.719589,628.205322 176.378754,628.210388 
	C197.505890,628.250854 218.636154,628.569519 239.758667,628.289978 
	C249.800858,628.157104 248.724075,629.025635 248.924927,618.819641 
	C249.054779,612.221130 248.791565,611.941162 242.409317,611.891663 
	C219.923569,611.717224 197.437775,611.541443 174.951706,611.420410 
	C163.201355,611.357117 163.201080,611.408264 163.276474,624.058228 
M772.510315,628.046875 
	C777.649109,628.066101 782.788757,628.150513 787.926575,628.088318 
	C794.666199,628.006775 796.942261,624.457947 794.212280,618.226013 
	C793.629150,616.894714 792.668396,615.610046 791.581726,614.639648 
	C787.870667,611.326111 783.982483,608.211487 780.251465,604.919434 
	C778.506348,603.379761 777.090698,603.905823 775.355164,604.948364 
	C769.665466,608.366638 763.581970,609.226501 757.160156,607.338806 
	C755.905884,606.970093 754.583801,606.323181 753.368164,607.347168 
	C749.566284,610.549561 744.876160,613.224854 742.864136,617.800171 
	C739.649475,625.110352 740.479309,628.735291 749.203918,628.412781 
	C756.654358,628.137390 764.116150,628.169067 772.510315,628.046875 
M579.598938,750.297668 
	C577.768494,750.306946 575.937988,750.335388 574.107727,750.320862 
	C571.736694,750.302063 570.294556,751.234192 570.299438,753.816223 
	C570.312073,760.472107 570.295044,767.128052 570.303711,773.783936 
	C570.305908,775.490784 571.024048,776.901917 572.844055,776.853821 
	C581.126892,776.635254 589.477173,778.516968 597.679321,776.447571 
	C602.134033,775.323608 604.772522,772.259521 604.837402,767.420227 
	C604.882019,764.092834 604.930298,760.764587 604.900818,757.437317 
	C604.845886,751.226562 603.977417,750.363647 597.548279,750.299194 
	C591.890869,750.242493 586.232361,750.292297 579.598938,750.297668 
M432.033844,752.645081 
	C431.211487,750.601074 429.462524,750.164368 427.546783,750.170349 
	C419.217865,750.196350 410.888885,750.246155 402.560394,750.329895 
	C400.857483,750.346985 398.773376,750.576050 398.479187,752.492859 
	C397.471619,759.057678 396.764252,765.729858 399.570496,772.041809 
	C400.688049,774.555481 403.147522,776.284058 405.876984,776.500061 
	C413.001648,777.063843 420.124115,778.025757 427.304230,777.473999 
	C430.445587,777.232666 431.947235,775.710571 432.156036,772.393555 
	C432.554077,766.069580 432.825409,759.763245 432.033844,752.645081 
M578.599731,871.230103 
	C570.269592,871.231323 570.113586,871.234802 570.299683,879.621033 
	C570.462708,886.965332 569.070435,893.818542 565.283508,900.155823 
	C564.722778,901.094177 563.843079,902.077515 564.765381,903.480652 
	C572.605103,903.480652 580.531555,903.480652 589.286377,903.480652 
	C584.860229,890.158020 588.734680,879.783569 600.775024,872.367859 
	C600.448914,871.989258 600.122864,871.610657 599.796753,871.232056 
	C593.055969,871.232056 586.315125,871.232056 578.599731,871.230103 
M426.301697,871.173096 
	C418.562347,871.173096 410.823029,871.173096 403.083679,871.173096 
	C402.690948,871.592773 402.298187,872.012451 401.905457,872.432190 
	C414.041901,879.780518 418.346405,889.950439 413.756592,903.289185 
	C422.191040,903.289185 430.056793,903.289185 438.921539,903.289185 
	C432.920197,894.738037 432.066742,885.735474 432.700592,876.501160 
	C432.988312,872.309204 431.310944,870.636841 426.301697,871.173096 
M432.590546,628.596130 
	C440.904297,628.578125 449.226440,628.779297 457.528717,628.461548 
	C462.654083,628.265381 463.929688,626.048462 462.017548,621.681396 
	C458.473022,613.586121 451.510925,610.301147 443.349335,609.532715 
	C435.120850,608.757935 427.790009,611.074829 422.933685,618.356750 
	C421.301819,620.803711 419.191498,623.783264 420.833923,626.642029 
	C422.380096,629.333313 425.863312,628.498535 428.630737,628.617249 
	C429.626404,628.659912 430.626007,628.610718 432.590546,628.596130 
M544.189026,615.704529 
	C541.821289,617.994080 540.874634,621.061035 539.787109,624.011658 
	C538.807861,626.668701 539.224854,628.585083 542.739929,628.577637 
	C554.557861,628.552490 566.376099,628.578796 578.193848,628.652893 
	C581.216675,628.671814 581.969543,627.242065 581.345581,624.539978 
	C579.907349,618.312622 576.729187,613.338318 570.479736,611.273376 
	C561.323364,608.247925 552.480652,608.544189 544.189026,615.704529 
M781.500000,820.033569 
	C791.136841,820.022949 800.773743,820.034119 810.410400,819.988220 
	C813.184326,819.975037 816.286194,819.595825 816.313904,816.129944 
	C816.341309,812.712708 813.506531,811.435791 810.400940,811.426025 
	C793.121094,811.371765 775.841003,811.360840 758.561279,811.425110 
	C755.494446,811.436523 752.620300,812.649902 752.681641,816.145752 
	C752.742554,819.621765 755.756592,819.990662 758.568115,819.997131 
	C765.878723,820.013977 773.189392,820.018921 781.500000,820.033569 
M762.266785,762.616333 
	C777.583008,762.616760 792.899292,762.628296 808.215515,762.601562 
	C809.865967,762.598694 811.583923,762.618958 813.148499,762.186707 
	C814.937683,761.692261 816.627380,760.605469 816.588440,758.418701 
	C816.546753,756.075134 814.957764,754.835938 812.811401,754.430115 
	C811.517883,754.185547 810.159424,754.235657 808.830200,754.236572 
	C793.012146,754.246948 777.193970,754.247681 761.376099,754.314392 
	C757.804810,754.329468 752.748108,753.555603 752.776245,758.556763 
	C752.804810,763.614319 757.842773,762.562622 762.266785,762.616333 
M455.918549,534.471741 
	C457.641510,532.441101 459.369385,530.414551 461.085815,528.378418 
	C462.362366,526.864075 462.486633,525.386719 460.832031,524.056396 
	C459.227448,522.766357 457.941895,523.741394 456.939697,524.879700 
	C454.301239,527.876648 451.538849,530.813782 449.302704,534.099304 
	C447.638489,536.544556 445.739746,537.636536 442.857635,538.033081 
	C435.533417,539.040588 431.617310,545.257019 433.362183,552.624146 
	C434.704407,558.291260 441.399017,562.011353 447.090973,560.252991 
	C453.640900,558.229614 457.182220,550.945679 453.807526,544.539062 
	C451.603363,540.354675 452.534180,537.780701 455.918549,534.471741 
M209.500290,790.622192 
	C219.469101,790.623840 229.438278,790.673157 239.406494,790.597473 
	C242.317581,790.575378 245.578918,790.085571 245.659332,786.412537 
	C245.744827,782.506714 242.389359,782.382507 239.491989,782.373108 
	C223.708130,782.321838 207.924133,782.325623 192.140213,782.286560 
	C189.304474,782.279541 186.429214,782.556946 186.255295,786.092896 
	C186.067932,789.902405 188.994446,790.585022 192.052185,790.607849 
	C197.534714,790.648804 203.017776,790.621033 209.500290,790.622192 
M434.139679,473.697021 
	C431.305267,480.545593 433.942780,488.394104 440.287506,489.181854 
	C445.656189,489.848480 448.467682,492.800079 451.381866,496.432892 
	C453.248322,498.759613 455.217407,501.008575 457.224335,503.216187 
	C458.428528,504.540771 459.931000,505.339203 461.561981,503.924988 
	C463.068604,502.618622 462.338440,501.134186 461.373749,499.949005 
	C458.758087,496.735260 456.063599,493.583435 453.330017,490.468781 
	C451.751343,488.670074 451.234253,487.135162 452.670197,484.751587 
	C456.124725,479.017120 454.831024,473.258331 449.785339,470.020599 
	C444.568481,466.673035 438.758636,467.821167 434.139679,473.697021 
M807.273682,864.322449 
	C792.138916,864.315613 777.004089,864.308472 761.869324,864.302307 
	C759.707703,864.301392 757.532654,864.211243 755.474731,865.062683 
	C754.016418,865.666016 752.718750,866.556885 752.829590,868.294617 
	C752.946045,870.119568 754.063538,871.369141 755.905762,871.743774 
	C757.039734,871.974487 758.211792,872.127991 759.366821,872.128662 
	C775.654663,872.138306 791.942810,872.166260 808.229980,872.056824 
	C811.356995,872.035828 816.128357,873.134460 816.249695,868.545593 
	C816.377075,863.726746 811.637390,864.417236 807.273682,864.322449 
M557.596863,560.518738 
	C565.089905,559.165649 568.821655,555.259399 568.739685,548.854858 
	C568.658752,542.526855 564.610046,538.324890 557.312073,537.494568 
	C555.159363,537.249756 554.100708,536.035645 552.898132,534.675781 
	C550.144775,531.562500 547.440369,528.402100 544.585022,525.385010 
	C543.692749,524.442200 542.293457,523.646851 541.043640,524.835327 
	C539.859741,525.961121 540.358154,527.350464 541.226318,528.446594 
	C543.601929,531.446350 545.973389,534.458313 548.520325,537.310120 
	C550.080139,539.056763 550.185608,540.499695 549.117310,542.637756 
	C545.001770,550.874878 547.814453,557.166626 557.596863,560.518738 
M494.764618,458.945129 
	C499.700928,460.653595 497.722260,464.879730 498.259460,468.257812 
	C498.655457,470.748077 496.483124,475.122406 500.474518,475.268433 
	C505.309967,475.445374 503.621155,470.679077 503.614075,467.900818 
	C503.603577,463.775269 503.372192,460.029846 508.241150,458.166229 
	C510.297028,457.379333 511.187347,455.082733 511.610870,452.883820 
	C512.690979,447.275635 509.578430,442.247284 503.718262,440.061188 
	C498.699188,438.188812 493.373779,440.126556 490.865753,444.737854 
	C487.936005,450.124542 488.957428,454.554321 494.764618,458.945129 
M220.499969,722.156616 
	C210.868256,722.172058 201.236557,722.188293 191.604843,722.202332 
	C188.713196,722.206604 185.752335,722.935608 185.822647,726.233093 
	C185.895966,729.671509 188.789108,730.549194 191.981674,730.408447 
	C207.912186,729.706055 223.846573,729.782959 239.777542,730.391479 
	C242.815674,730.507507 246.112717,730.210999 246.313583,726.739685 
	C246.533646,722.936096 243.154800,722.184021 239.933044,722.171814 
	C233.788742,722.148560 227.644302,722.161194 220.499969,722.156616 
M549.424316,485.220856 
	C550.890259,487.303375 549.833679,488.956146 548.540283,490.597778 
	C546.176941,493.597443 543.787170,496.578796 541.517212,499.648254 
	C540.532104,500.980408 539.451416,502.699707 541.255981,504.033844 
	C542.904480,505.252533 543.965637,503.567261 544.934692,502.518646 
	C547.751831,499.470093 550.578735,496.424225 553.250061,493.249573 
	C554.933533,491.248871 556.816406,490.104858 559.478394,489.622009 
	C566.204102,488.402008 570.084656,482.102112 568.216248,475.978943 
	C566.364197,469.909149 560.102783,466.722687 554.421753,468.958954 
	C548.135010,471.433685 545.857788,478.000061 549.424316,485.220856 
M196.616638,857.857971 
	C210.404236,857.871948 224.191833,857.888428 237.979431,857.895691 
	C239.306992,857.896423 240.647293,857.945007 241.959320,857.786560 
	C244.180618,857.518188 245.787430,856.371704 245.715576,853.955505 
	C245.644165,851.553711 243.981812,850.506897 241.759949,850.294922 
	C240.605713,850.184753 239.437149,850.200806 238.275070,850.200439 
	C223.324738,850.195740 208.374390,850.198120 193.424057,850.199890 
	C192.593613,850.199951 191.762451,850.190125 190.932846,850.219299 
	C188.401855,850.308228 185.864014,851.150635 185.843185,853.882996 
	C185.820206,856.899048 188.455704,857.774719 191.177963,857.836914 
	C192.672302,857.871094 194.167847,857.852661 196.616638,857.857971 
M752.132690,582.397583 
	C752.227600,585.183655 753.353149,587.573242 755.087341,589.671997 
	C758.789124,594.152039 765.602051,595.313843 769.936401,592.263184 
	C774.568604,589.002930 776.449280,582.080200 773.995056,577.323425 
	C771.474060,572.437134 766.726135,569.746948 761.810059,570.419189 
	C756.683289,571.120300 753.182129,575.155334 752.132690,582.397583 
M386.651489,886.018188 
	C385.981140,886.754944 385.191223,887.414734 384.660004,888.240906 
	C381.446594,893.238892 383.366486,899.769348 388.840790,902.636719 
	C393.023407,904.827637 398.054993,902.481750 400.532928,897.314941 
	C402.455627,893.305786 401.609833,889.723877 398.642090,886.807800 
	C395.320465,883.544250 391.373077,883.042297 386.651489,886.018188 
M602.841980,888.493469 
	C600.271484,892.723633 600.513306,896.836731 603.982788,900.326599 
	C607.333313,903.696838 611.484314,903.670715 615.497375,901.603943 
	C619.699402,899.439758 620.328125,895.532166 619.654480,891.312500 
	C619.099060,887.833069 616.691956,885.663269 613.588623,884.662048 
	C609.578613,883.368347 606.073853,884.720337 602.841980,888.493469 
M595.726318,620.020630 
	C596.180603,621.781128 596.797668,623.518555 597.051392,625.307495 
	C597.440735,628.052429 599.079346,628.642090 601.554626,628.760620 
	C611.007324,629.213562 611.589417,628.601685 609.860413,619.180115 
	C609.651489,618.041626 609.412781,616.895569 609.355103,615.744629 
	C609.137207,611.400208 606.905396,609.942200 602.601624,609.955750 
	C592.643616,609.987122 592.496216,609.991577 595.726318,620.020630 
M393.280884,618.499329 
	C393.018799,619.968262 392.727753,621.432739 392.501190,622.907104 
	C392.127472,625.339233 392.010193,628.065918 395.160980,628.320557 
	C398.570465,628.596008 403.276276,630.622070 405.086212,626.571960 
	C407.249969,621.729919 407.795776,616.164795 409.038025,610.931213 
	C397.087830,608.080383 393.904083,609.512207 393.280884,618.499329 
M246.399109,551.908447 
	C246.472565,553.714722 247.446198,554.411011 249.214706,554.688843 
	C256.401855,555.817749 260.201385,551.751709 258.760712,544.328918 
	C257.954651,540.175964 255.269760,538.741394 250.115799,539.028259 
	C245.652069,539.276672 246.384995,542.316284 246.349655,545.064880 
	C246.324066,547.054688 246.360046,549.045349 246.399109,551.908447 
M784.163879,567.086609 
	C785.335999,568.708252 786.576660,569.996826 788.512207,568.002441 
	C790.588562,565.862976 792.686890,563.744385 794.737549,561.580627 
	C795.770508,560.490662 795.907593,559.255371 795.058899,557.958679 
	C793.271057,555.226990 791.704407,552.325562 789.322815,550.055786 
	C778.750122,558.034180 777.963745,560.428894 784.163879,567.086609 
M202.676910,586.720093 
	C200.908615,584.048462 197.678360,584.184082 196.099091,585.451050 
	C192.456268,588.373352 193.653320,593.109863 192.855927,597.091553 
	C203.716232,599.771729 205.466751,598.225403 203.273285,588.412415 
	C203.201645,588.091858 203.070129,587.784729 202.676910,586.720093 
M498.134766,565.161255 
	C498.179626,567.510620 497.928436,570.312927 501.336090,570.220276 
	C504.763641,570.127014 503.635468,567.132629 503.744873,565.221069 
	C503.925171,562.070190 503.787201,558.899597 503.743958,555.737854 
	C503.722656,554.178284 503.549011,552.622864 501.487732,552.509216 
	C499.578796,552.404053 498.725372,553.749878 498.572021,555.300842 
	C498.277985,558.274658 498.271606,561.276794 498.134766,565.161255 
M695.511230,628.052612 
	C688.898254,622.710693 677.973022,622.603760 673.741150,628.393066 
	C681.116638,628.863403 688.118347,628.680725 695.511230,628.052612 
z"/>
<path fill="#000000" opacity="1.000000" stroke="none" 
	d="
M880.057251,352.302368 
	C880.280090,357.506622 880.468872,362.323914 880.510681,367.142456 
	C880.545227,371.131042 881.919739,373.441833 886.425720,373.091522 
	C889.567505,372.847229 892.756531,372.966248 895.908997,373.166382 
	C899.796814,373.413208 902.265198,375.617432 902.153748,379.539764 
	C902.041992,383.474060 899.857910,386.127655 895.601257,386.271790 
	C892.108337,386.390076 888.600159,386.444641 885.113464,386.256134 
	C881.131287,386.040894 881.044373,388.664581 880.829041,391.457672 
	C880.567322,394.852356 882.850403,394.695129 885.087097,394.692596 
	C887.918091,394.689423 890.749390,394.655426 893.579956,394.689423 
	C899.186768,394.756744 902.229675,396.999939 902.093262,400.914948 
	C901.934753,405.460785 898.693970,407.770569 892.885986,407.523651 
	C890.557983,407.424683 888.216370,407.522125 885.899048,407.321442 
	C882.252319,407.005615 880.766541,408.510071 880.837402,412.197357 
	C880.926819,416.845398 881.157898,421.499115 880.462463,426.155426 
	C878.739868,437.689117 870.205200,445.097565 858.474670,445.093933 
	C836.326355,445.087067 814.178101,445.108948 792.029785,445.113129 
	C776.610840,445.116058 768.783508,437.171661 768.610474,421.760742 
	C768.559204,417.190826 770.732910,411.445343 767.467102,408.335114 
	C764.455566,405.467010 758.863464,407.589020 754.415649,407.387360 
	C748.890259,407.136871 746.680481,405.504517 746.609863,401.182617 
	C746.535278,396.618774 748.815308,394.746643 754.575562,394.691650 
	C757.905884,394.659851 761.238342,394.608002 764.566650,394.692261 
	C767.582397,394.768585 768.658264,393.333374 768.688843,390.426331 
	C768.720825,387.387939 767.328857,386.212067 764.467285,386.234711 
	C760.804321,386.263733 757.140259,386.252960 753.477661,386.196320 
	C749.204041,386.130188 746.450439,384.075439 746.042908,379.722900 
	C745.704590,376.110657 748.708374,373.819885 753.496094,373.604248 
	C757.152893,373.439545 760.804688,373.139740 764.462646,373.034851 
	C767.347961,372.952118 768.705322,371.674683 768.656250,368.728546 
	C768.584290,364.400299 768.636169,360.069275 768.684570,355.739960 
	C768.794861,345.878326 776.960876,336.886932 786.873718,336.777924 
	C812.016357,336.501404 837.167480,336.416565 862.307495,336.783630 
	C871.796753,336.922119 877.235779,343.174683 880.057251,352.302368 
M866.952637,417.426056 
	C866.938416,397.944794 866.951904,378.463409 866.893677,358.982300 
	C866.875610,352.926849 863.353516,349.358612 857.744202,349.637543 
	C855.972107,349.725677 853.848511,349.738220 853.506531,352.207123 
	C853.253113,354.036530 853.324585,355.604156 855.394836,356.838531 
	C858.735962,358.830566 858.817017,361.804321 856.040771,364.447144 
	C853.431213,366.931274 846.643372,367.906281 843.271606,365.994934 
	C839.365906,363.780823 839.497986,360.291473 840.431946,356.399719 
	C841.645325,351.343445 840.693604,350.318298 835.247864,350.257080 
	C828.421997,350.180359 821.594299,350.189178 814.768188,350.248810 
	C809.363953,350.296021 808.245422,351.930145 809.958984,357.004303 
	C811.419312,361.328491 809.159302,365.300293 804.567261,366.147125 
	C802.788696,366.475128 800.918945,366.317230 799.090271,366.362030 
	C796.003540,366.437653 793.440552,365.352417 792.131531,362.466888 
	C790.796997,359.525085 792.824158,358.058777 794.935974,356.391724 
	C797.418457,354.432068 797.038269,351.330322 794.568604,350.366699 
	C788.752136,348.097198 782.352478,351.895081 782.306946,358.070526 
	C782.147217,379.714203 782.155396,401.360046 782.269043,423.004181 
	C782.299683,428.837036 785.201965,431.507843 790.973450,431.582397 
	C792.819397,431.606232 795.292969,432.524780 796.234863,430.015472 
	C797.045105,427.856781 795.629761,426.277222 794.032776,424.883057 
	C791.767029,422.904999 791.529419,420.649078 793.580566,418.357147 
	C795.429443,416.291321 804.184082,415.611328 807.458984,417.273041 
	C811.435974,419.291107 810.681335,422.399139 809.619446,425.842743 
	C808.478638,429.542389 809.380066,431.959412 814.080566,431.710175 
	C819.061707,431.446075 824.067932,431.688141 829.062256,431.630157 
	C832.378601,431.591644 836.190674,432.408447 838.888245,431.058563 
	C842.620850,429.190735 840.142578,424.735687 840.604553,421.446411 
	C841.012207,418.544647 842.336121,416.802612 845.215088,416.435760 
	C849.264587,415.919830 853.375183,415.828461 856.180359,419.419647 
	C858.087280,421.860962 855.986145,423.599365 854.493042,425.452515 
	C852.927795,427.395233 852.179932,429.883728 854.873535,431.368500 
	C859.211853,433.759918 866.197632,429.891296 866.845154,424.880157 
	C867.120544,422.749084 866.933105,420.558167 866.952637,417.426056 
z"/>
<path fill="#000000" opacity="1.000000" stroke="none" 
	d="
M780.152710,210.525452 
	C782.791809,209.963135 783.635193,207.722900 785.212524,206.298370 
	C788.114807,203.677261 791.265808,203.245682 794.156311,205.917374 
	C796.896179,208.449829 797.361084,211.645935 795.159607,214.932449 
	C794.974548,215.208710 794.815002,215.550522 794.552063,215.719055 
	C787.146729,220.464981 788.885986,226.811890 791.053589,233.552505 
	C791.900696,236.186584 793.078003,237.051224 795.566345,237.009293 
	C798.896057,236.953171 802.239990,236.850204 805.555908,237.081848 
	C810.085449,237.398315 813.134949,240.488159 812.638550,244.464890 
	C812.132019,248.523209 809.869141,251.184189 805.382629,251.200378 
	C805.049500,251.201584 804.716248,251.209000 804.383179,251.217667 
	C792.457947,251.527817 792.557129,251.558334 789.143433,262.677917 
	C788.336365,265.306641 788.646179,267.133820 790.687805,268.844666 
	C791.962463,269.912811 793.184326,271.059631 794.322510,272.271973 
	C797.845520,276.024628 797.882324,279.740662 794.494507,282.718628 
	C790.993286,285.796295 786.728516,285.286133 783.655884,281.393311 
	C782.545349,279.986359 781.861877,278.144897 779.741760,277.703888 
	C776.460571,280.440826 773.176147,283.197327 769.871765,285.929718 
	C768.253662,287.267700 768.222168,289.093903 768.230896,290.947144 
	C768.251221,295.278656 768.344727,299.611389 768.273621,303.941376 
	C768.204285,308.164734 766.313965,310.989594 761.788330,311.242950 
	C757.651794,311.474518 754.997009,308.626953 754.652466,303.993835 
	C754.384583,300.391724 756.102661,296.090424 753.642212,293.355194 
	C751.161072,290.596832 746.958679,293.611938 743.570129,292.681915 
	C742.945862,292.510559 742.242981,292.639313 741.578186,292.599701 
	C733.512878,292.119263 733.575562,292.116058 733.795776,300.203644 
	C733.854065,302.344757 733.660339,304.569458 733.115295,306.632385 
	C732.288879,309.760223 730.326599,312.188324 726.775085,311.867401 
	C723.524353,311.573608 721.313354,309.573730 720.625183,306.215820 
	C719.712646,301.763031 719.966858,297.239532 720.094055,292.760193 
	C720.203613,288.898956 719.170166,285.965759 715.668945,284.029297 
	C712.751160,282.415558 711.351074,278.964844 708.290039,277.584808 
	C706.189758,277.940643 705.817444,279.828339 704.782837,281.046844 
	C701.568909,284.832306 696.706848,285.413116 693.341003,282.382996 
	C689.947327,279.327759 690.233826,275.349243 694.189575,271.560699 
	C695.146606,270.644196 696.192688,269.766724 697.334412,269.108185 
	C699.923218,267.614990 700.863953,265.729828 699.367004,262.912659 
	C698.904175,262.041840 698.666687,261.044281 698.377808,260.089081 
	C695.667236,251.126450 695.670471,251.128738 686.446838,251.102112 
	C685.114746,251.098267 683.771362,251.147247 682.452881,250.997620 
	C678.008301,250.493179 674.877686,247.420898 674.943726,243.728851 
	C675.011597,239.937653 677.965698,237.714676 683.082214,237.616653 
	C684.081421,237.597504 685.081421,237.620255 686.080933,237.613754 
	C696.551941,237.545670 698.602905,235.618240 699.696960,225.055481 
	C699.871704,223.368729 699.223083,222.194916 698.201660,221.020096 
	C696.454285,219.010300 694.642578,217.037354 693.090332,214.881607 
	C690.953857,211.914612 691.041504,208.858231 693.853149,206.376785 
	C696.746277,203.823471 700.027039,203.918106 702.951172,206.283768 
	C704.717346,207.712616 706.053711,209.672745 707.805847,211.644806 
	C711.840881,208.126953 715.709717,204.791397 719.531433,201.402771 
	C720.970703,200.126556 720.568359,198.338409 720.579712,196.698807 
	C720.610962,192.210464 720.619812,187.721954 720.635559,183.233521 
	C720.649597,179.226425 722.693970,176.899673 726.643372,176.736893 
	C730.433594,176.580673 732.846252,178.415054 733.659363,182.377289 
	C734.252380,185.266785 733.469116,188.013962 733.383179,190.824203 
	C733.274841,194.365814 734.573425,196.084305 738.346069,195.889496 
	C742.164917,195.692322 746.009033,195.744247 749.830994,195.923309 
	C753.328796,196.087173 754.745117,194.440735 754.610901,191.156601 
	C754.522705,188.996811 754.225098,186.842514 754.201599,184.683792 
	C754.149780,179.912369 756.979309,176.746002 761.229797,176.665009 
	C765.429749,176.584976 767.744324,179.074951 768.112671,184.128357 
	C768.197266,185.289337 768.356506,186.500000 768.135620,187.619568 
	C766.021606,198.334244 771.120850,205.316940 780.152710,210.525452 
M727.848694,213.328888 
	C714.441650,221.006653 706.888489,236.887238 710.437561,251.492538 
	C714.983459,270.199432 730.462097,283.198151 752.728088,278.170624 
	C771.569763,273.916321 783.144470,252.691772 777.637695,234.460526 
	C771.355896,213.663361 748.634888,203.737793 727.848694,213.328888 
z"/>
<path fill="#000000" opacity="1.000000" stroke="none" 
	d="
M122.172546,359.035400 
	C123.703796,342.504089 130.056992,336.692535 146.371414,336.659637 
	C168.695572,336.614655 191.032974,337.105835 213.339081,336.469208 
	C226.388077,336.096802 233.825562,346.358368 234.102509,356.576172 
	C234.206314,360.405396 234.377960,364.256897 234.091705,368.066162 
	C233.768387,372.368805 235.507751,373.648346 239.608612,373.195587 
	C242.733231,372.850586 245.936203,373.029510 249.092133,373.200348 
	C253.211548,373.423309 255.735931,375.834137 255.778397,379.855225 
	C255.822662,384.048981 252.945877,386.071014 248.955399,386.291382 
	C245.632767,386.474792 242.291824,386.431854 238.962219,386.353027 
	C236.003693,386.282990 234.289505,387.123749 234.222031,390.547455 
	C234.154190,393.989960 235.740982,394.861847 238.786438,394.743652 
	C242.279343,394.608124 245.785706,394.627625 249.279449,394.759399 
	C252.900192,394.895996 255.317154,396.495758 255.353455,400.518250 
	C255.389420,404.504486 253.399185,406.903473 249.484024,407.213379 
	C245.841049,407.501801 242.152771,407.453125 238.497406,407.279633 
	C235.209198,407.123535 234.021118,408.518219 234.131775,411.691986 
	C234.276825,415.852020 234.256393,420.022369 234.164886,424.185181 
	C233.887604,436.800171 225.524811,445.102356 212.995056,445.131409 
	C190.004532,445.184692 167.013794,445.196533 144.023224,445.164124 
	C129.705795,445.143921 121.702835,435.580994 122.178940,421.365021 
	C122.869377,400.749817 123.035378,380.096069 122.172546,359.035400 
M175.492691,431.103210 
	C186.650894,431.299316 197.808441,431.572815 208.967499,431.668274 
	C218.815933,431.752533 220.629181,429.949646 220.619308,420.080872 
	C220.598816,399.601349 220.469452,379.121918 220.396149,358.642426 
	C220.375870,352.975189 218.024384,350.309204 212.307175,350.287964 
	C189.644592,350.203857 166.981247,350.204010 144.318756,350.305115 
	C138.959198,350.329010 136.259628,353.071106 136.231216,358.319000 
	C136.113937,379.981232 136.053253,401.644165 136.105118,423.306519 
	C136.119385,429.262268 138.073486,431.022919 144.000702,431.056580 
	C154.165237,431.114288 164.330231,431.093445 175.492691,431.103210 
z"/>
<path fill="#000000" opacity="1.000000" stroke="none" 
	d="
M202.660370,214.052612 
	C201.356781,195.935440 213.113098,187.144730 228.574158,187.629425 
	C249.713058,188.292130 270.887329,187.804398 292.046295,187.855453 
	C306.236298,187.889709 314.242737,195.936569 314.281525,210.240753 
	C314.345703,233.898773 314.368805,257.557007 314.354462,281.215088 
	C314.346985,293.541534 306.089783,301.983429 293.720215,302.054047 
	C270.729065,302.185303 247.736557,302.200012 224.745132,302.117920 
	C211.854324,302.071899 202.745117,292.913452 202.693863,280.019714 
	C202.607132,258.194489 202.665833,236.368668 202.660370,214.052612 
M300.728333,254.500031 
	C300.691010,239.853165 300.711090,225.205795 300.587921,210.559662 
	C300.539032,204.744751 297.407196,201.442566 291.701874,201.415878 
	C269.898041,201.313873 248.093124,201.298157 226.289413,201.408173 
	C219.436707,201.442749 216.276184,204.810211 216.269730,211.692490 
	C216.248642,234.162079 216.285187,256.631836 216.363174,279.101318 
	C216.386475,285.811523 218.367386,287.932800 224.907455,288.009399 
	C247.199890,288.270630 269.493469,288.451477 291.787079,288.581390 
	C298.372314,288.619781 300.682098,286.203186 300.731903,279.468018 
	C300.790985,271.479156 300.733917,263.489410 300.728333,254.500031 
z"/>
<path fill="#000000" opacity="1.000000" stroke="none" 
	d="
M506.000000,105.703323 
	C516.163635,105.702766 525.827698,105.642197 535.490784,105.713699 
	C547.091309,105.799530 554.362854,113.240746 554.369812,124.905472 
	C554.379150,140.546631 554.427673,156.187988 554.367188,171.828903 
	C554.325745,182.539185 546.879089,190.143646 536.167542,190.196198 
	C512.842163,190.310623 489.515503,190.332214 466.190094,190.228714 
	C455.702667,190.182159 448.004089,182.365341 447.932831,171.779648 
	C447.830780,156.619644 447.828613,141.456451 448.023743,126.297714 
	C448.195374,112.963242 455.720245,105.702568 469.011566,105.677933 
	C481.174316,105.655396 493.337189,105.691521 506.000000,105.703323 
M466.502014,119.611794 
	C463.642700,120.561127 462.104614,122.506981 462.107422,125.553650 
	C462.121490,140.694183 462.121094,155.834839 462.193512,170.975128 
	C462.211121,174.661453 464.357819,176.366074 467.938660,176.379395 
	C489.560089,176.459778 511.181458,176.562302 532.802917,176.587387 
	C539.191345,176.594803 540.772339,174.997131 540.780640,168.608566 
	C540.798584,154.798965 540.751343,140.989029 540.661133,127.179665 
	C540.624146,121.515335 538.599060,119.413071 532.722168,119.396309 
	C510.926880,119.334175 489.131165,119.410294 466.502014,119.611794 
z"/>
<path fill="#000000" opacity="1.000000" stroke="none" 
	d="
M937.780151,911.733215 
	C937.699585,906.787964 939.838867,903.971924 944.443787,903.859131 
	C948.398193,903.762207 951.130981,905.946838 951.631042,909.958618 
	C952.125854,913.927368 950.187378,916.658691 946.238281,917.657166 
	C941.503235,918.854431 939.171265,916.207947 937.780151,911.733215 
z"/>
<path fill="#000000" opacity="1.000000" stroke="none" 
	d="
M820.184875,319.854980 
	C818.111023,325.406342 814.276428,327.508423 810.309631,325.495483 
	C806.979675,323.805664 805.347290,321.016602 806.239624,317.275482 
	C807.039612,313.921204 809.615845,312.180450 812.868958,312.281097 
	C817.253601,312.416718 819.933411,314.839752 820.184875,319.854980 
z"/>
<path fill="#000000" opacity="1.000000" stroke="none" 
	d="
M54.186775,916.962036 
	C50.693146,914.290588 49.731606,911.119629 51.491280,907.525696 
	C52.883163,904.683044 55.541332,903.704651 58.620663,904.167175 
	C62.842125,904.801208 65.516144,908.480530 64.683838,912.356628 
	C63.734821,916.776367 60.056042,918.513367 54.186775,916.962036 
z"/>
<path fill="#000000" opacity="1.000000" stroke="none" 
	d="
M917.518188,917.752319 
	C914.032898,916.205017 912.003174,914.032410 912.389465,910.348083 
	C912.816895,906.271118 916.301514,903.284485 920.203735,903.726135 
	C924.074036,904.164307 926.086365,906.537476 926.259888,910.340271 
	C926.465271,914.841064 923.360413,917.555237 917.518188,917.752319 
z"/>
<path fill="#000000" opacity="1.000000" stroke="none" 
	d="
M584.861328,155.221558 
	C586.093750,150.765625 588.704346,148.510345 592.995056,149.192963 
	C596.523438,149.754333 598.504211,152.030396 598.499146,155.788834 
	C598.494263,159.424973 596.781616,161.785782 593.296021,162.756699 
	C588.921204,163.975311 585.835205,161.347015 584.861328,155.221558 
z"/>
<path fill="#000000" opacity="1.000000" stroke="none" 
	d="
M649.250977,173.795837 
	C651.928833,173.565491 653.965088,174.052704 655.429016,175.921066 
	C657.420654,178.462891 658.115112,181.294815 656.451233,184.208572 
	C654.846558,187.018600 652.303955,188.631027 649.002686,187.818222 
	C645.757996,187.019379 644.080994,184.481812 643.816162,181.282364 
	C643.511414,177.601791 644.973145,174.840637 649.250977,173.795837 
z"/>
<path fill="#000000" opacity="1.000000" stroke="none" 
	d="
M805.682373,295.807556 
	C809.235779,296.894043 811.219849,298.958008 811.154541,302.355072 
	C811.104370,304.972443 809.807739,307.133514 807.423767,308.370514 
	C804.711060,309.778107 801.996460,309.693939 799.557861,307.698853 
	C797.004089,305.609497 797.011719,302.742310 797.812561,299.980865 
	C798.872192,296.327454 801.876770,295.562103 805.682373,295.807556 
z"/>
<path fill="#000000" opacity="1.000000" stroke="none" 
	d="
M417.171753,157.513123 
	C413.699951,162.974854 409.987701,164.254059 406.558807,161.455917 
	C403.813110,159.215286 402.786041,156.213623 404.246002,152.997665 
	C405.791473,149.593201 408.845093,148.244370 412.522003,149.057419 
	C416.855621,150.015686 417.658112,153.256332 417.171753,157.513123 
z"/>
<path fill="#000000" opacity="1.000000" stroke="none" 
	d="
M83.686600,903.944763 
	C87.614777,905.080627 89.842705,907.239929 89.629189,911.155212 
	C89.475578,913.972107 88.343651,916.248657 85.441742,917.271606 
	C81.447929,918.679504 77.551147,916.819946 76.325409,912.888733 
	C74.917252,908.372742 77.518333,905.012390 83.686600,903.944763 
z"/>
<path fill="#000000" opacity="1.000000" stroke="none" 
	d="
M634.969604,164.775192 
	C638.963074,168.480377 639.262634,172.436066 636.154175,175.648712 
	C633.581604,178.307495 629.370544,178.440247 626.800781,175.943634 
	C624.025024,173.246918 624.071899,168.734161 626.886353,165.639587 
	C629.174438,163.123871 631.820801,163.420242 634.969604,164.775192 
z"/>
<path fill="#000000" opacity="1.000000" stroke="none" 
	d="
M370.230164,177.507614 
	C365.165558,176.117386 362.951904,173.262253 363.894501,169.438766 
	C364.794037,165.790115 367.328583,163.683884 371.061279,163.809433 
	C374.894104,163.938370 377.154388,166.230728 377.255249,170.160049 
	C377.370026,174.629181 375.468689,177.464355 370.230164,177.507614 
z"/>
<path fill="#000000" opacity="1.000000" stroke="none" 
	d="
M817.786987,476.516205 
	C821.572632,475.396942 824.468994,476.200897 826.344421,479.260010 
	C827.937073,481.857819 827.900269,484.717224 826.064636,487.197754 
	C824.284363,489.603577 821.616699,489.967285 818.882385,489.253906 
	C816.038391,488.511902 814.425842,486.413208 813.912659,483.624817 
	C813.340637,480.516541 814.553467,478.130219 817.786987,476.516205 
z"/>
<path fill="#000000" opacity="1.000000" stroke="none" 
	d="
M433.590942,144.781311 
	C438.188965,147.651993 439.211975,150.628555 437.054138,154.340591 
	C435.188477,157.549988 432.458740,159.280365 428.735901,157.669846 
	C424.995697,156.051804 423.647064,152.905121 424.779755,149.078140 
	C426.006287,144.934219 429.423523,144.334702 433.590942,144.781311 
z"/>
<path fill="#000000" opacity="1.000000" stroke="none" 
	d="
M355.571838,174.352112 
	C358.468384,177.791397 358.909851,181.122467 356.245789,184.458542 
	C354.331970,186.855118 351.694733,186.972168 349.037201,186.069260 
	C345.404144,184.834915 343.454559,180.601959 344.815033,177.252853 
	C346.324280,173.537643 350.380463,172.317978 355.571838,174.352112 
z"/>
<path fill="#000000" opacity="1.000000" stroke="none" 
	d="
M673.328491,196.360992 
	C667.132141,198.357956 663.697754,197.019363 662.865417,192.489960 
	C662.229858,189.031189 663.462708,186.238297 666.618469,184.591721 
	C669.706177,182.980652 672.568604,183.829239 674.591614,186.429382 
	C677.215027,189.801331 676.844421,193.178146 673.328491,196.360992 
z"/>
<path fill="#000000" opacity="1.000000" stroke="none" 
	d="
M396.907440,165.342865 
	C394.750122,169.568481 391.651550,171.049744 387.730804,169.015350 
	C384.488647,167.333084 382.964722,164.278763 384.272156,160.654709 
	C385.549713,157.113434 388.530884,155.413116 392.158508,156.163086 
	C396.856293,157.134293 397.839874,160.672272 396.907440,165.342865 
z"/>
<path fill="#000000" opacity="1.000000" stroke="none" 
	d="
M615.085632,169.311981 
	C611.041443,171.103592 608.172241,169.793945 606.079468,166.742798 
	C604.312683,164.166946 604.380859,161.309784 606.259705,158.795349 
	C608.102539,156.329010 610.877197,156.235977 613.552917,156.883698 
	C618.996277,158.201401 619.872253,164.137451 615.085632,169.311981 
z"/>
<path fill="#000000" opacity="1.000000" stroke="none" 
	d="
M339.054810,188.453522 
	C339.574677,192.385727 338.291199,195.054688 335.015991,196.571747 
	C332.465790,197.752991 330.061584,197.140457 328.110016,195.299362 
	C325.776215,193.097656 325.733917,190.283676 326.703156,187.439896 
	C327.541107,184.981293 329.395996,183.726562 331.969604,183.564011 
	C335.393433,183.347763 337.659760,184.965149 339.054810,188.453522 
z"/>
<path fill="#000000" opacity="1.000000" stroke="none" 
	d="
M182.431549,457.412109 
	C186.144913,457.060577 188.621765,458.295776 189.827179,461.527191 
	C190.770050,464.054901 190.349442,466.372375 188.472229,468.392029 
	C186.456161,470.561066 183.994263,471.078400 181.248810,470.291382 
	C178.849777,469.603729 176.973740,468.063446 176.885803,465.503571 
	C176.758423,461.794342 178.105621,458.724731 182.431549,457.412109 
z"/>
<path fill="#000000" opacity="1.000000" stroke="none" 
	d="
M197.828461,295.782166 
	C201.048569,296.505432 203.004501,298.006714 203.541489,301.059967 
	C204.199493,304.801392 203.306870,307.890656 199.447739,309.032684 
	C195.858597,310.094818 192.675308,308.916870 191.246475,305.237915 
	C189.902802,301.778229 190.711090,298.620941 194.105347,296.626221 
	C195.055191,296.068054 196.308655,296.026550 197.828461,295.782166 
z"/>
<path fill="#000000" opacity="1.000000" stroke="none" 
	d="
M189.526291,479.866394 
	C190.570587,485.165710 189.029236,488.459045 185.299057,489.186523 
	C181.379608,489.950867 178.466309,488.574066 177.145462,484.612091 
	C175.973297,481.096100 177.792709,477.427826 181.356064,476.292786 
	C184.832520,475.185455 187.444733,476.536926 189.526291,479.866394 
z"/>
<path fill="#000000" opacity="1.000000" stroke="none" 
	d="
M187.274399,312.795837 
	C194.289459,313.202789 197.822800,317.528534 195.312057,322.168304 
	C193.951874,324.681854 191.776474,326.259827 188.834198,325.975677 
	C185.665817,325.669708 183.681061,323.639862 183.076904,320.582428 
	C182.400696,317.160309 183.347229,314.323669 187.274399,312.795837 
z"/>
<path fill="#000000" opacity="1.000000" stroke="none" 
	d="
M566.159302,147.263519 
	C568.970459,144.347961 571.910950,143.866196 574.982178,145.786438 
	C577.485046,147.351334 578.346008,149.821854 577.694641,152.709198 
	C576.785706,156.738571 573.036499,159.044479 569.462158,157.843582 
	C565.466675,156.501205 564.120667,152.615814 566.159302,147.263519 
z"/>
<path fill="#000000" opacity="1.000000" stroke="none" 
	d="
M823.962158,469.342834 
	C820.457031,470.815735 817.421814,471.039795 815.083740,468.075409 
	C813.256531,465.758759 813.250305,463.183502 814.754639,460.659698 
	C816.441223,457.830017 819.136414,457.385712 822.096130,457.741638 
	C824.478699,458.028137 826.026672,459.454987 826.750427,461.660645 
	C827.744385,464.690002 826.709229,467.154205 823.962158,469.342834 
z"/>
<path fill="#000000" opacity="1.000000" stroke="none" 
	d="
M199.320770,546.342163 
	C202.503876,548.058411 203.612457,550.402344 202.756348,553.523499 
	C202.193787,555.574524 200.951050,557.028809 198.670624,557.266785 
	C196.274658,557.516785 193.984512,557.352722 192.553467,555.048950 
	C191.335602,553.088257 191.247253,550.885437 192.257904,548.903870 
	C193.634018,546.205750 196.036774,545.405518 199.320770,546.342163 
z"/>
<path fill="#000000" opacity="1.000000" stroke="none" 
	d="
M170.970642,532.051147 
	C171.327881,530.732910 171.504089,529.684021 172.061981,528.910461 
	C174.226212,525.909973 178.295898,525.192383 180.756088,527.501648 
	C183.236816,529.830200 183.896179,532.589783 181.385956,535.380188 
	C178.969910,538.065979 174.545609,537.948181 172.164749,535.125061 
	C171.558578,534.406311 171.354050,533.348877 170.970642,532.051147 
z"/>
<path fill="#000000" opacity="1.000000" stroke="none" 
	d="
M177.721695,557.497253 
	C173.793579,557.695679 171.654587,555.902649 171.060394,552.515564 
	C170.617599,549.991394 171.707535,547.915344 174.072098,546.805115 
	C177.252457,545.311768 180.157181,545.947571 181.647018,549.167664 
	C183.388077,552.930786 182.223953,555.944092 177.721695,557.497253 
z"/>
<path fill="#000000" opacity="1.000000" stroke="none" 
	d="
M193.173096,535.566284 
	C191.165802,532.561340 191.081543,529.870544 193.671494,527.754395 
	C195.933487,525.906189 198.638321,525.976746 201.027725,527.594299 
	C203.396484,529.197876 203.774338,531.636536 202.801620,534.197815 
	C201.393188,537.906311 197.742599,538.515808 193.173096,535.566284 
z"/>
<path fill="#000000" opacity="1.000000" stroke="none" 
	d="
M221.504898,547.660034 
	C223.915573,550.888000 224.181259,553.913879 221.257172,556.342590 
	C219.214493,558.039307 216.529175,558.228333 214.345428,556.455688 
	C212.030640,554.576599 211.494019,551.863953 212.854263,549.260254 
	C214.790375,545.554260 217.803543,545.248962 221.504898,547.660034 
z"/>
<path fill="#000000" opacity="1.000000" stroke="none" 
	d="
M213.587448,535.595825 
	C211.654709,531.622314 211.679321,528.345520 216.035599,526.759399 
	C218.580887,525.832703 221.007278,526.517639 222.468552,529.096252 
	C223.758835,531.373291 223.583496,533.724243 221.841187,535.569580 
	C219.413330,538.140869 216.601608,538.028076 213.587448,535.595825 
z"/>
<path fill="#000000" opacity="1.000000" stroke="none" 
	d="
M838.987793,367.926758 
	C843.143066,367.954193 846.820374,367.760498 850.454895,368.070129 
	C856.829224,368.613190 860.195374,372.104462 860.313965,378.404694 
	C860.473633,386.883972 860.461365,395.371338 860.288452,403.850433 
	C860.171936,409.564758 857.628723,412.230164 852.098755,413.463806 
	C846.327271,414.751343 840.497253,414.045746 834.695557,414.126465 
	C823.885864,414.276855 813.073975,414.274109 802.262878,414.306824 
	C792.668762,414.335846 788.815430,410.631409 788.700439,401.196136 
	C788.617371,394.377502 788.599243,387.557220 788.636780,380.738129 
	C788.684082,372.152283 792.817261,367.973694 801.567566,367.910645 
	C813.874573,367.821930 826.182861,367.916199 838.987793,367.926758 
M847.620483,394.767120 
	C847.634338,392.105408 847.462341,389.426636 847.705139,386.785980 
	C848.081055,382.697754 846.531555,381.203583 842.344543,381.284241 
	C830.703613,381.508575 819.055359,381.433167 807.410889,381.347229 
	C803.332825,381.317139 801.090210,382.725677 801.345520,387.154785 
	C801.517578,390.139526 801.511230,393.148254 801.356934,396.134491 
	C801.176453,399.628571 802.772461,400.815338 806.125488,400.791565 
	C818.268921,400.705505 830.415894,400.644714 842.556274,400.866028 
	C846.602234,400.939758 848.006409,399.343414 847.620483,394.767120 
z"/>
<path fill="#000000" opacity="1.000000" stroke="none" 
	d="
M740.481873,272.996033 
	C719.565125,268.220795 709.198975,246.772812 719.227661,229.821060 
	C725.379395,219.422791 739.562988,212.980148 749.952393,215.864975 
	C764.056702,219.781342 773.231628,231.179169 772.890442,244.360367 
	C772.552124,257.430389 763.087219,269.160675 750.312256,272.229736 
	C747.236511,272.968689 744.107178,273.535797 740.481873,272.996033 
M759.587219,242.815964 
	C758.879761,240.961395 758.380737,238.991241 757.427673,237.272903 
	C753.850281,230.822830 747.291687,227.817551 740.626404,229.390991 
	C734.815430,230.762741 729.448730,237.152237 729.144897,243.060654 
	C728.796692,249.831787 733.142212,256.612030 739.251709,258.830017 
	C745.285583,261.020538 752.628723,258.354706 756.758240,252.511017 
	C758.652283,249.830780 759.277771,246.765671 759.587219,242.815964 
z"/>
<path fill="#000000" opacity="1.000000" stroke="none" 
	d="
M163.393036,379.558044 
	C169.664215,373.214600 176.359436,369.608368 185.053436,373.543396 
	C194.246872,377.704468 198.297348,388.335785 194.113739,397.264069 
	C189.837936,406.389130 179.666595,410.742676 171.391876,406.989502 
	C160.878906,402.221130 156.935760,392.335175 161.608200,382.394653 
	C162.028625,381.500214 162.633804,380.692627 163.393036,379.558044 
M179.135178,395.774872 
	C182.764069,394.415070 184.545624,391.910583 183.041031,388.138763 
	C182.060165,385.679810 179.916458,384.291931 177.065765,384.982025 
	C174.310379,385.648987 172.806335,387.681702 172.834351,390.356476 
	C172.870178,393.776520 174.731018,395.856567 179.135178,395.774872 
z"/>
<path fill="#000000" opacity="1.000000" stroke="none" 
	d="
M160.168427,413.183350 
	C162.176315,418.228119 160.701828,422.033844 156.977142,424.973511 
	C153.779373,427.497345 150.133392,427.464935 146.781830,425.328918 
	C142.983093,422.907959 142.104813,419.078094 142.810699,414.863464 
	C143.454437,411.019867 145.878677,408.661835 149.632339,407.890076 
	C154.249176,406.940887 157.692581,408.781036 160.168427,413.183350 
z"/>
<path fill="#000000" opacity="1.000000" stroke="none" 
	d="
M151.080109,356.659149 
	C158.219498,357.394348 162.330399,362.695618 160.691132,368.495026 
	C159.448029,372.892914 154.761353,376.450958 150.748123,376.043549 
	C146.410538,375.603210 142.940857,371.595276 142.668900,366.711090 
	C142.354691,361.067871 144.764740,358.041290 151.080109,356.659149 
z"/>
<path fill="#000000" opacity="1.000000" stroke="none" 
	d="
M204.899185,356.778839 
	C211.239090,358.290833 214.184448,361.393341 213.990356,365.938934 
	C213.797943,370.445953 210.052811,374.591064 205.679413,375.137543 
	C201.117355,375.707611 196.689163,372.876068 195.262238,368.476471 
	C193.412476,362.773102 197.278000,357.865479 204.899185,356.778839 
z"/>
<path fill="#000000" opacity="1.000000" stroke="none" 
	d="
M200.259064,408.877869 
	C208.504074,406.459198 214.807938,411.138885 213.535675,418.450348 
	C212.787857,422.747986 210.351364,425.792664 205.744522,426.348419 
	C201.188812,426.898041 198.042877,424.728546 196.219879,420.666199 
	C194.199814,416.164673 195.379715,412.635406 200.259064,408.877869 
z"/>
<path fill="#000000" opacity="1.000000" stroke="none" 
	d="
M224.952652,230.067154 
	C228.243744,224.735413 233.037521,222.736969 238.647888,222.680664 
	C241.899384,222.648026 244.072922,221.506088 245.281433,218.514084 
	C245.342911,218.361862 245.455795,218.230988 245.538986,218.086853 
	C248.617233,212.753693 252.149826,207.423676 259.040955,207.746964 
	C265.601532,208.054764 268.957581,213.221909 271.420563,218.729050 
	C272.428406,220.982559 273.854126,222.052551 276.383667,222.031830 
	C278.698181,222.012878 281.064545,222.201950 283.324158,222.688721 
	C291.744537,224.502747 294.652313,230.730270 290.694122,238.265701 
	C289.999908,239.587357 289.291382,240.951218 288.328308,242.070938 
	C286.659363,244.011353 286.471802,245.611298 288.245758,247.717697 
	C289.831451,249.600616 291.086182,251.841110 292.123840,254.091278 
	C294.772156,259.833984 293.166443,265.535065 287.098297,266.972351 
	C278.108276,269.101624 270.790405,272.001038 265.529694,280.558960 
	C262.322235,285.776703 254.068207,284.884644 250.492569,279.469604 
	C246.032501,272.715118 240.807129,269.146484 232.570511,267.821350 
	C223.934982,266.432098 222.258957,260.858124 226.258209,252.862228 
	C226.927185,251.524734 227.625504,250.175659 228.506073,248.975616 
	C230.437576,246.343338 230.337891,244.083389 228.413086,241.293655 
	C226.219193,238.113953 223.328857,234.898911 224.952652,230.067154 
M262.140198,236.202164 
	C256.657257,234.689941 251.979660,236.417343 249.387390,240.911652 
	C247.201721,244.701019 248.110718,251.079742 251.295761,254.303314 
	C254.230316,257.273376 259.650696,257.831573 263.763885,255.587265 
	C270.841309,251.725555 270.347534,241.782898 262.140198,236.202164 
M257.314056,218.910706 
	C255.855225,220.860489 252.620605,222.981995 257.428864,224.612579 
	C259.088928,225.175568 261.693390,225.004730 262.045837,222.933060 
	C262.482086,220.368774 260.693787,218.703964 257.314056,218.910706 
M258.462921,267.242004 
	C257.230621,267.423004 255.801880,266.882782 254.719559,268.388153 
	C255.334198,270.534363 256.154694,272.930695 258.847290,272.873413 
	C260.764404,272.832581 261.732117,270.684082 261.972046,268.916534 
	C262.252625,266.849579 260.345703,267.440033 258.462921,267.242004 
M281.771942,258.497437 
	C283.465607,256.019958 282.071533,253.781097 280.000366,253.636230 
	C276.475128,253.389633 276.604736,256.652740 276.162750,259.139679 
	C278.097961,259.992676 279.613983,259.231628 281.771942,258.497437 
M281.948853,234.845154 
	C281.785706,230.618530 278.729950,232.035843 276.387787,231.656174 
	C276.649445,235.110458 277.166840,236.765594 278.155243,237.188293 
	C279.988708,237.972382 280.810669,236.627487 281.948853,234.845154 
M238.414902,259.529053 
	C242.449387,258.700195 239.652878,256.569916 239.010376,255.264282 
	C238.407043,254.038254 237.080887,254.209518 236.253143,255.451218 
	C234.908218,257.468750 235.411179,258.824036 238.414902,259.529053 
z"/>
<path fill="#000000" opacity="1.000000" stroke="none" 
	d="
M473.982788,136.241302 
	C476.263000,136.615524 477.115204,137.891602 477.399139,139.709473 
	C477.648621,141.306778 478.323456,142.602921 480.188721,142.669281 
	C481.955688,142.732162 483.115753,141.695602 483.420135,140.114944 
	C484.097992,136.594742 486.066437,135.762192 489.208374,136.944260 
	C491.533051,137.818863 493.255798,135.894821 495.395752,135.653671 
	C501.741333,134.938583 509.037750,134.713730 513.918579,137.114914 
	C519.837524,140.026810 523.284851,141.478638 528.484070,136.723206 
	C530.164734,135.186020 532.144836,137.977539 532.321960,140.430252 
	C532.633240,144.739182 532.967712,149.049515 533.124573,153.365356 
	C533.217163,155.913284 533.032043,158.767838 529.734497,159.090942 
	C526.135681,159.443573 526.141113,156.446960 525.808289,153.960907 
	C525.722839,153.322983 525.511658,152.701889 525.300964,151.838242 
	C522.801392,151.838242 520.404785,151.838242 517.961853,151.838242 
	C516.757812,152.911987 516.698120,154.473206 516.399109,155.913391 
	C516.069092,157.502899 515.514404,158.915680 513.623413,158.831863 
	C511.573975,158.741028 510.895294,157.285095 510.732361,155.431015 
	C510.357056,151.161041 511.238037,146.813858 510.054688,142.361359 
	C506.248627,141.896637 504.322113,143.486084 504.148956,147.176254 
	C504.032074,149.666550 504.162964,152.170700 503.992737,154.655609 
	C503.838379,156.908112 503.242462,159.185867 500.406097,159.180908 
	C497.600159,159.176010 496.921387,157.025833 496.847565,154.684662 
	C496.768982,152.191879 496.671722,149.686676 496.828613,147.202438 
	C497.079254,143.233383 495.193817,141.764633 491.177094,142.159836 
	C489.398041,144.777664 490.481720,147.851517 490.204651,150.715469 
	C490.029083,152.529877 490.215302,154.384262 489.977905,156.186310 
	C489.736786,158.016815 488.613159,159.252701 486.621277,159.194824 
	C484.864990,159.143799 483.980042,158.055222 483.719940,156.352066 
	C483.400940,154.263184 483.565918,151.559280 480.661926,151.390549 
	C477.195282,151.189133 477.775085,154.337051 477.218079,156.431213 
	C476.802094,157.995026 476.010162,159.268021 474.320587,159.463882 
	C472.540527,159.670212 471.293304,158.469376 471.112701,156.933777 
	C470.394012,150.822571 470.336060,144.677246 471.155975,138.566193 
	C471.312927,137.396530 472.412506,136.654465 473.982788,136.241302 
z"/>
</svg>